<svg width="206" height="288" viewBox="0 0 206 288" fill="none" xmlns="http://www.w3.org/2000/svg">
<path d="M0 114.8C0 166.8 98 183.2 98 197.2C98 205.6 71.6 218.8 64.4 223.2C51.2 232 20 251.2 20 270C20 283.6 31.6 287.6 43.2 287.6C55.2 287.6 68.4 283.6 75.6 281.2C96.4 272.8 137.6 248.8 137.6 220.4C137.6 215.2 132.8 208.8 132.8 202C132.8 195.6 139.2 191.2 144.4 187.6C156.8 178.8 206 146 206 135.2C206 131.6 202.4 129.2 200 129.2C196 129.2 192 132.4 189.2 134.4C174.4 147.6 159.2 160 143.2 171.6C132.4 180 126.8 185.6 118.8 185.6C114.8 185.6 109.6 184 103.2 180.8C78 167.6 15.2 140.4 15.2 113.6C15.2 68 104 14.8 149.2 14.8C156.8 14.8 165.2 17.2 165.2 24.8C165.2 36 147.6 52.4 141.6 57.6C137.6 61.2 126.4 68.8 126.4 75.2C126.4 78.8 129.2 80.8 132 80.8C136.8 80.8 142.8 76.4 145.6 74C158.8 62.8 178.8 43.6 178.8 24.4C178.8 7.2 164.8 -5.72205e-06 150.4 -5.72205e-06C92.4 -5.72205e-06 0 61.2 0 114.8ZM122 219.6C122 248.4 72 273.2 44 273.2C39.6 273.2 35.2 272.4 35.2 268.8C35.2 252.8 90.4 220.8 102.8 214.8C106.8 212.8 110.4 211.6 114 211.6C118.8 211.6 122 214 122 219.6Z" fill="#ECDBBA"/>
</svg>
