<svg width="519" height="326" viewBox="0 0 519 326" fill="none" xmlns="http://www.w3.org/2000/svg">
<path d="M0 116.8C0 168.8 98 185.2 98 199.2C98 207.6 71.6 220.8 64.4 225.2C51.2 234 20 253.2 20 272C20 285.6 31.6 289.6 43.2 289.6C55.2 289.6 68.4 285.6 75.6 283.2C96.4 274.8 137.6 250.8 137.6 222.4C137.6 217.2 132.8 210.8 132.8 204C132.8 197.6 139.2 193.2 144.4 189.6C156.8 180.8 206 148 206 137.2C206 133.6 202.4 131.2 200 131.2C196 131.2 192 134.4 189.2 136.4C174.4 149.6 159.2 162 143.2 173.6C132.4 182 126.8 187.6 118.8 187.6C114.8 187.6 109.6 186 103.2 182.8C78 169.6 15.2 142.4 15.2 115.6C15.2 70 104 16.8 149.2 16.8C156.8 16.8 165.2 19.2 165.2 26.8C165.2 38 147.6 54.4 141.6 59.6C137.6 63.2 126.4 70.8 126.4 77.2C126.4 80.8 129.2 82.8 132 82.8C136.8 82.8 142.8 78.4 145.6 76C158.8 64.8 178.8 45.6 178.8 26.4C178.8 9.2 164.8 2 150.4 2C92.4 2 0 63.2 0 116.8ZM122 221.6C122 250.4 72 275.2 44 275.2C39.6 275.2 35.2 274.4 35.2 270.8C35.2 254.8 90.4 222.8 102.8 216.8C106.8 214.8 110.4 213.6 114 213.6C118.8 213.6 122 216 122 221.6Z" fill="#ECDBBA"/>
<path d="M291.222 26C282.022 26 241.222 32 231.222 32C228.822 32 228.022 30.8 228.022 28C228.022 21.6 231.222 13.6 231.222 9.6C231.222 4.39999 228.422 0 224.822 0C223.222 0 221.622 0.79999 220.022 2.79999C210.822 13.6 222.022 30.8 203.222 35.6C187.222 39.2 172.422 38 156.022 43.2C149.622 45.6 146.422 49.6 146.422 53.6C146.422 58.8 149.222 60.4 153.222 60.4C167.622 60.4 182.022 51.2 198.822 51.2C204.022 51.2 208.422 52 208.422 56.8C208.422 63.6 182.422 184.4 182.422 238.4C182.422 239.2 182.422 239.6 182.422 240.4C182.422 246.8 182.822 257.2 191.222 257.2C196.022 257.2 197.622 252.8 197.622 248.4C197.622 243.2 196.822 237.6 196.822 232.4C196.822 205.2 205.222 156.8 210.822 120.4C213.222 106.4 219.622 60 223.622 50.8C228.022 41.6 279.622 42.8 292.422 40.4C298.822 39.2 302.022 36 302.022 32.8C302.022 29.2 298.422 26 291.222 26Z" fill="#ECDBBA"/>
<path d="M265.028 125.2C265.028 126.4 258.628 134.8 254.228 134.8C253.428 134.8 253.028 134.4 253.028 133.6C253.028 130.8 260.628 124 263.828 124C264.628 124 265.028 124.4 265.028 125.2ZM312.228 133.2C297.428 148.4 272.628 171.2 249.028 171.2C243.428 171.2 237.828 167.6 237.828 160.8C237.828 156.4 241.828 152.4 247.028 152.4C260.628 152.4 281.028 141.6 281.028 123.2C281.028 114.4 273.428 107.2 266.228 107.2C245.828 107.2 223.828 142.4 223.828 161.6C223.828 176.4 235.028 184.8 246.628 184.8C277.028 184.8 309.028 157.2 323.828 142.4C325.828 140.4 327.028 138.4 327.028 136C327.028 134.4 326.228 132.4 324.628 130.8C323.028 129.6 321.428 129.2 320.228 129.2C317.428 129.2 314.628 131.2 312.228 133.2Z" fill="#ECDBBA"/>
<path d="M385.962 124C385.962 110.8 376.363 99.2 362.363 99.2C348.763 99.2 335.563 118.4 330.763 118.4C330.363 118.4 329.962 117.6 329.962 116C329.962 105.2 336.763 95.6 336.763 80.8C336.763 76 334.363 71.2 329.562 71.2C324.363 71.2 322.363 79.2 321.163 83.6C313.563 122.4 305.963 160.8 299.562 199.6C295.562 222.8 285.962 278 285.962 306.8C285.962 316 287.162 325.6 293.562 325.6C297.163 325.6 300.763 322.4 300.763 317.2C300.763 312.8 299.962 309.6 299.962 305.6C299.962 273.6 305.962 239.6 311.962 208.4C318.762 175.6 323.962 146.4 346.362 123.6C351.162 118.8 355.963 114.4 361.562 114.4C367.963 114.4 371.562 118.8 371.562 125.2C371.562 151.6 351.962 172.4 335.562 172.4C332.363 172.4 331.163 176 331.163 178C331.163 182 335.163 185.6 341.562 185.6C361.163 185.6 385.962 151.6 385.962 124Z" fill="#ECDBBA"/>
<path d="M415.741 194C429.341 194 448.141 135.2 456.141 135.2C461.341 135.2 460.141 162.8 475.741 162.8C488.141 162.8 508.141 149.6 515.341 142.4C517.341 140.4 518.141 138 518.141 136C518.141 132.4 514.941 129.2 511.341 129.2C508.541 129.2 487.341 148 478.541 148C471.341 148 473.741 127.2 468.141 119.2C465.741 116 463.341 114.4 460.541 114.4C442.541 114.4 423.741 172.4 416.541 172.4C415.741 172.4 414.941 170.8 414.941 167.2C414.941 166 414.941 165.2 414.941 164C418.541 123.6 431.741 68 440.941 28.4C442.541 22.4 445.741 14 445.741 7.6C445.741 3.6 442.541 0.399995 438.541 0.399995C432.941 0.399995 431.741 4.39999 430.941 7.6C420.141 55.6 400.541 118.8 400.541 172.4C400.541 186.8 402.941 194 415.741 194Z" fill="#ECDBBA"/>
</svg>
